<svg xmlns="http://www.w3.org/2000/svg" xmlns:xlink="http://www.w3.org/1999/xlink" version="1.1" id="Layer_1" x="0px" y="0px" width="100%" viewBox="0 0 6460 4096" enable-background="new 0 0 6460 4096" xml:space="preserve">

<path fill="white" opacity="1.000000" stroke="none" d=" M4.000001,537.874634   C10.615023,535.604065 17.230017,534.861816 23.845070,534.861328   C701.774902,534.809021 1379.704712,534.661438 2057.634521,534.920105   C2225.362305,534.984131 2384.963867,572.250793 2536.820312,643.226013   C2638.352539,690.680481 2730.817383,751.832458 2813.644287,827.304688   C2953.504883,954.745850 3053.339355,1108.231812 3111.918457,1288.311157   C3130.699951,1346.046997 3143.962158,1405.041626 3152.538330,1465.171143   C3161.118164,1525.326172 3165.073242,1585.742432 3163.520752,1646.428223   C3162.208740,1697.705688 3157.317871,1748.692505 3149.209717,1799.427246   C3133.026367,1900.688843 3103.013184,1997.607544 3059.624512,2090.405029   C3008.407959,2199.944336 2940.982178,2298.426514 2857.524414,2386.003662   C2766.032959,2482.011719 2660.732910,2559.093018 2541.882080,2617.768799   C2529.441895,2623.910156 2516.847900,2629.739746 2505.049805,2635.368408   C2504.807861,2637.402344 2504.605225,2638.013672 2504.702881,2638.572266   C2504.814941,2639.210938 2505.148193,2639.828857 2505.470459,2640.408447   C2505.792725,2640.987549 2506.238281,2641.496582 2506.597168,2642.057129   C2507.315674,2643.178955 2507.961426,2644.350830 2508.727539,2645.437988   C2511.030518,2648.706787 2513.399902,2651.928223 2515.703369,2655.196533   C2820.405273,3087.587402 3125.103760,3519.980469 3429.801514,3952.374023   C3430.569336,3953.463623 3431.330566,3954.558350 3432.085693,3955.656982   C3432.463135,3956.206299 3432.834229,3956.761230 3433.181641,3957.329590   C3433.528564,3957.897705 3433.866455,3958.473389 3434.163330,3959.068604   C3434.451416,3959.646240 3434.681885,3960.252686 3434.946045,3960.865723   C3433.790527,3965.491943 3429.932861,3964.062500 3426.945312,3964.266846   C3423.627686,3964.494141 3420.282715,3964.325439 3416.949707,3964.325439   C3215.637207,3964.325684 3014.324707,3964.325439 2813.012207,3964.325439   C2808.353516,3964.325439 2803.694824,3964.325195 2797.504150,3964.325195   C2773.409668,3931.652588 2750.986084,3897.131104 2727.577148,3863.316406   C2703.688965,3828.809814 2680.130127,3794.075439 2656.410400,3759.452148   C2633.068359,3725.379883 2609.703125,3691.323730 2586.353027,3657.257080   C2562.625000,3622.638916 2538.896484,3588.020752 2515.178955,3553.395264   C2491.839111,3519.321533 2468.515137,3485.236816 2445.179932,3451.159912   C2421.467041,3416.531494 2397.762939,3381.896729 2374.028809,3347.282959   C2350.672119,3313.219971 2327.270264,3279.187988 2303.910156,3245.127441   C2280.549072,3211.065430 2257.195801,3176.998047 2233.874756,3142.908691   C2210.179199,3108.272461 2186.564697,3073.580566 2162.844971,3038.960938   C2139.499512,3004.887451 2116.050293,2970.884766 2092.676270,2936.831055   C2068.927002,2902.230957 2045.208618,2867.609619 2021.485474,2832.991699   C1998.174561,2798.975342 1974.875000,2764.951172 1951.521973,2730.859863   C1686.621216,2730.859863 1422.673340,2730.856934 1158.725464,2730.916504   C1156.908203,2730.916992 1155.091064,2731.778564 1152.122559,2732.529053   C1151.197510,2773.860596 1151.812256,2815.037842 1151.701416,2856.202881   C1151.592041,2896.865234 1151.677734,2937.527832 1151.677734,2978.190430   C1151.677734,3019.519531 1151.677734,3060.848389 1151.677734,3102.177490   C1151.677734,3142.839844 1151.677734,3183.502441 1151.677734,3224.164795   C1151.677734,3265.493896 1151.677734,3306.822998 1151.677734,3348.152100   C1151.677734,3388.814453 1151.677734,3429.477051 1151.677734,3470.139404   C1151.677734,3511.468506 1151.677734,3552.797363 1151.677734,3594.126465   C1151.677734,3634.789062 1151.677734,3675.451416 1151.677734,3716.114014   C1151.677734,3757.443115 1151.677734,3798.771973 1151.677734,3840.101074   C1151.677734,3880.652100 1151.677612,3921.203125 1151.677612,3960.298096   C1149.947510,3962.239258 1149.575195,3962.842773 1149.039917,3963.204346   C1148.527954,3963.549805 1147.846436,3963.822998 1147.239136,3963.823486   C960.604065,3963.994873 773.969055,3964.142822 587.333984,3964.240723   C585.460938,3964.241699 583.587585,3963.571045 582.289856,3963.323486   C581.316223,3962.349365 580.721558,3961.946777 580.409180,3961.386719   C580.108154,3960.846680 579.977600,3960.144775 579.977478,3959.513916   C579.863708,3370.246094 579.766479,2780.978027 579.697693,2191.710205   C579.697327,2189.061523 580.047729,2186.405518 580.371887,2183.769775   C580.438171,2183.230957 581.122559,2182.768311 582.002869,2181.670898   C583.249634,2181.349121 585.080627,2180.513672 586.933167,2180.462891   C593.594299,2180.280029 600.262756,2180.345947 606.928406,2180.345947   C1084.212280,2180.343506 1561.497192,2180.885498 2038.779541,2180.022705   C2187.135254,2179.754639 2313.707764,2124.471680 2417.841553,2018.643066   C2487.010254,1948.348755 2529.092285,1863.368774 2552.023926,1768.238037   C2565.856689,1710.854004 2571.492188,1652.648682 2567.070557,1593.761353   C2559.416016,1491.820190 2526.880615,1398.393555 2467.022705,1315.370239   C2380.524658,1195.397217 2264.099854,1121.291016 2118.852295,1093.153076   C2086.816406,1086.946899 2054.286621,1084.237305 2021.515015,1084.242188   C1350.256348,1084.343140 678.997803,1084.305176 5.869592,1084.147461   C4.000000,902.583069 4.000000,721.166199 4.000001,537.874634  z"/>
<path fill="white" opacity="1.000000" stroke="none" d=" M6464.000000,438.167725   C6462.969238,439.504181 6461.149414,438.426849 6461.023438,438.597473   C6458.284180,442.318298 6455.489258,446.037598 6453.181152,450.032104   C6375.567383,584.355286 6297.989258,718.699402 6220.436035,853.057495   C6135.894043,999.522400 6051.382812,1146.004639 5966.854004,1292.476318   C5964.523926,1296.513306 5962.068359,1300.479370 5959.792480,1304.545898   C5954.419922,1314.145386 5946.483398,1319.751587 5935.333984,1317.923950   C5924.561035,1316.158081 5917.624023,1309.671509 5915.379395,1298.386963   C5912.001465,1281.411499 5908.043457,1264.552734 5904.502441,1247.608643   C5882.177734,1140.764526 5859.899414,1033.910767 5837.607910,927.059753   C5831.898926,899.695740 5826.203125,872.329224 5820.479980,844.968262   C5819.800781,841.721313 5819.350098,838.364563 5818.177246,835.293823   C5813.324707,822.584778 5801.929199,817.063843 5789.188477,821.556030   C5782.937988,823.759705 5777.026855,826.933044 5770.987305,829.722961   C5572.862305,921.247681 5374.751465,1012.803406 5176.614258,1104.303589   C4907.194824,1228.722656 4637.757324,1353.103027 4368.324707,1477.495361   C4073.525635,1613.598999 3778.725586,1749.700684 3483.912598,1885.774170   C3478.489258,1888.277344 3473.040527,1890.878174 3467.356689,1892.633911   C3453.218262,1897.001343 3439.981689,1888.958374 3437.553955,1874.642700   C3436.893066,1870.744629 3437.208008,1866.667847 3437.207031,1862.673096   C3437.191162,1793.355957 3437.473389,1724.036743 3436.988525,1654.723022   C3436.876465,1638.703857 3442.648926,1629.168823 3457.464844,1622.204712   C3557.419189,1575.221191 3657.027100,1527.500732 3756.766357,1480.058838   C3868.534424,1426.895020 3980.314209,1373.755493 4092.104736,1320.638550   C4196.671387,1270.954224 4301.275391,1221.347168 4405.833008,1171.644409   C4517.010254,1118.795166 4628.132812,1065.832520 4739.315430,1012.995361   C4844.487793,963.014832 4949.733398,913.188171 5054.898438,863.192749   C5179.892090,803.770752 5304.824707,744.218811 5429.803711,684.765747   C5525.943359,639.031555 5622.114258,593.361877 5718.274902,547.671448   C5721.281250,546.243042 5724.418457,545.069092 5727.342285,543.493286   C5738.842773,537.295715 5742.385742,530.576782 5740.774902,517.325867   C5740.216309,512.725647 5738.877930,508.208832 5737.748535,503.690613   C5699.501953,350.669861 5661.425293,197.606232 5622.681641,44.711327   C5618.877441,29.698284 5619.214355,17.372366 5629.302246,5.193377   C5637.482422,4.000000 5646.964355,4.000000 5656.837402,5.066950   C5659.815430,13.581959 5667.283203,14.223442 5672.980957,17.031713   C5706.408203,33.507133 5739.961914,49.727573 5773.500488,65.976074   C5887.277344,121.096581 6001.073242,176.176529 6114.847168,231.302414   C6217.849121,281.208923 6320.831055,331.155731 6423.823242,381.082550   C6435.790527,386.883728 6447.729004,392.747101 6459.807129,398.306427   C6460.668457,398.702759 6462.578125,396.821960 6464.000000,396.000000   C6464.000000,409.445160 6464.000000,422.890289 6464.000000,438.167725  z"/>
<path fill="white" opacity="1.000000" stroke="none" d=" M4021.874756,4100.000000   C4020.090332,4098.456543 4020.727539,4095.794922 4020.191162,4095.532715   C4005.705078,4088.448242 3997.469238,4075.635010 3988.925781,4062.804932   C3772.558594,3737.888184 3556.076416,3413.047363 3339.639648,3088.176514   C3250.995605,2955.122314 3162.409668,2822.029785 3073.796631,2688.954834   C3071.949951,2686.181641 3070.065430,2683.432861 3068.254150,2680.636719   C3047.010986,2647.842285 3046.276123,2614.594482 3065.991455,2580.850830   C3080.771729,2555.553467 3095.484131,2530.216553 3110.211914,2504.888428   C3192.220703,2363.852051 3274.224121,2222.812744 3356.233887,2081.777100   C3357.238281,2080.049561 3358.562500,2078.462646 3359.299316,2076.633545   C3363.645996,2065.845947 3371.979980,2060.525391 3382.862549,2057.222900   C3400.630859,2051.830566 3418.063477,2045.331665 3436.464600,2039.015747   C3439.073975,2042.474487 3441.677246,2045.330200 3443.616943,2048.581787   C3530.960205,2194.996582 3618.236572,2341.451416 3705.540039,2487.890137   C3771.357422,2598.288574 3837.227051,2708.655762 3903.026123,2819.065186   C4004.962891,2990.113525 4106.892578,3161.165527 4208.751953,3332.259521   C4239.076172,3383.194336 4280.792480,3422.601074 4330.876953,3453.552490   C4347.363770,3463.740967 4364.822754,3472.202148 4383.736328,3476.684082   C4423.663574,3486.144775 4449.483887,3531.257568 4449.212402,3565.308105   C4449.108398,3578.332764 4445.433105,3589.994873 4438.911133,3601.260742   C4404.881836,3660.044189 4371.119141,3718.982178 4337.326172,3777.902344   C4282.997559,3872.626953 4228.595703,3967.310059 4174.554199,4062.198242   C4166.770020,4075.865479 4158.273438,4088.092041 4143.277832,4094.480225   C4142.348145,4094.876221 4142.024902,4096.696777 4142.709473,4098.926758   C4103.916504,4100.000000 4063.832764,4100.000000 4021.874756,4100.000000  z"/>

<path fill="white" opacity="1.000000" stroke="none" d=" M4160.816406,2936.845215   C4232.938477,2814.561523 4304.377441,2693.572266 4375.789062,2572.566895   C4511.165527,2343.173340 4646.518555,2113.765625 4781.896973,1884.373291   C4859.404297,1753.041382 4936.902832,1621.704102 5014.562988,1490.462769   C5019.266113,1482.514648 5024.492676,1474.507568 5031.004883,1468.076904   C5043.860352,1455.381226 5060.325195,1450.160522 5078.177246,1449.253784   C5082.831543,1449.017334 5087.507324,1449.200928 5092.173340,1449.200928   C5274.146973,1449.199951 5456.121094,1449.194580 5638.094727,1449.222290   C5644.750488,1449.223389 5651.569824,1448.682373 5658.029785,1449.898315   C5674.083008,1452.919678 5680.975098,1467.055176 5673.132324,1481.673096   C5663.064453,1500.437988 5652.066406,1518.706909 5641.356934,1537.124023   C5455.586426,1856.603271 5269.797852,2176.071289 5084.018066,2495.544678   C4960.835938,2707.373535 4837.666504,2919.210449 4714.478027,3131.035645   C4692.718750,3168.451416 4670.719727,3205.729248 4649.210449,3243.287598   C4643.812500,3252.712891 4637.266113,3260.734131 4629.020020,3267.725830   C4601.891113,3290.730225 4572.605469,3310.164795 4539.031738,3322.465576   C4506.314941,3334.453125 4472.902344,3337.525391 4439.001465,3328.168457   C4414.765137,3321.478760 4393.589844,3308.914551 4375.946777,3291.124268   C4364.252441,3279.332031 4352.751465,3267.060059 4343.022949,3253.653564   C4277.276367,3163.052734 4214.474121,3070.451416 4156.085938,2974.904297   C4153.322754,2970.382568 4150.750000,2965.744629 4147.437988,2960.039062   C4151.547852,2952.939941 4155.833984,2945.535889 4160.816406,2936.845215  z"/>
</svg>